<?xml version="1.0" standalone="no"?>
<!DOCTYPE svg PUBLIC "-//W3C//DTD SVG 1.1//EN" "http://www.w3.org/Graphics/SVG/1.1/DTD/svg11.dtd" >
<svg xmlns="http://www.w3.org/2000/svg">
<metadata>Generated by IcoMoon</metadata>
<defs>
<font id="icomoon" horiz-adv-x="1024">
<font-face units-per-em="1024" ascent="960" descent="-64" />
<missing-glyph horiz-adv-x="1024" />
<glyph unicode="&#x20;" horiz-adv-x="512" d="" />
<glyph unicode="&#xe900;" glyph-name="ki-arrow-up" d="M544-5.76h-64v784.96l-352.64-352.64-45.44 45.12 430.080 430.080 429.76-430.080-45.12-45.12-352.64 352.64v-784.96z" />
<glyph unicode="&#xe901;" glyph-name="ki-billing-f" d="M864 128c0-17.673-14.327-32-32-32s-32 14.327-32 32v0 352h32c17.673 0 32-14.327 32-32v0zM640 544h-384v64h384zM640 416h-96v64h96zM416 416h-160v64h160zM832 544h-32v224c0 53.019-42.981 96-96 96v0h-514.56c-51.605 0-93.44-41.835-93.44-93.44v0-642.56c0-53.019 42.981-96 96-96v0h640c53.019 0 96 42.981 96 96v0 320c0 53.019-42.981 96-96 96v0z" />
<glyph unicode="&#xe902;" glyph-name="ki-chat-f" d="M736 480h-448v64h448zM576 352h-288v64h288zM512 864v0c-5.618 0.267-12.203 0.42-18.823 0.42-107.049 0-204.796-39.821-279.238-105.458l0.461 0.399c-77.44-72.96-118.4-180.8-118.4-311.36v-416h416c256 0 416 160 416 416 0.155 4.175 0.244 9.079 0.244 14.004 0 222.151-180.089 402.24-402.24 402.24-4.925 0-9.829-0.089-14.711-0.264l0.707 0.020z" />
<glyph unicode="&#xe903;" glyph-name="ki-chevron-down" d="M950.72 644.8l-438.72-438.72-438.72 438.72 45.44 45.12 393.28-393.28 393.28 393.28 45.44-45.12z" />
<glyph unicode="&#xe904;" glyph-name="ki-chevron-up" d="M73.28 251.2l438.72 438.72 438.72-438.72-45.44-45.12-393.28 393.28-393.28-393.28-45.44 45.12z" />
<glyph unicode="&#xe905;" glyph-name="ki-credit-card-f" d="M896 512h-768v64h768zM512 256h-352v64h352zM864 768h-704c-53.019 0-96-42.981-96-96v0-544h800c53.019 0 96 42.981 96 96v0 448c0 53.019-42.981 96-96 96v0z" />
<glyph unicode="&#xe906;" glyph-name="ki-document-f" d="M832 155.2c0.036-0.506 0.056-1.098 0.056-1.693 0-13.37-10.249-24.346-23.319-25.5l-0.097-0.007h-40.64v548.8c0.001 0.19 0.002 0.415 0.002 0.641 0 49.903-40.364 90.379-90.225 90.559h-357.777v37.12c-0.035 0.499-0.055 1.082-0.055 1.669 0 13.305 10.279 24.21 23.33 25.206l0.086 0.005h465.28c13.136-1.001 23.415-11.906 23.415-25.211 0-0.587-0.020-1.17-0.059-1.747l0.004 0.078zM608 480h-320v64h320zM512 352h-224v64h224zM808.64 896h-465.28c-48.516-1.246-87.37-40.872-87.37-89.572 0-0.46 0.003-0.919 0.010-1.377l-0.001 0.069v-37.12h-37.76c-49.878-0.181-90.242-40.656-90.242-90.559 0-0.225 0.001-0.45 0.002-0.675v0.034-676.8h549.76c40.242 0.268 74.207 26.834 85.588 63.361l0.172 0.639h45.12c48.451 0.883 87.389 40.367 87.389 88.946 0 0.793-0.010 1.583-0.031 2.37l0.002-0.116v649.92c0.013 0.576 0.021 1.254 0.021 1.934 0 48.576-38.934 88.059-87.298 88.945l-0.083 0.001z" />
<glyph unicode="&#xe907;" glyph-name="ki-download" d="M544 832v-505.6l202.88 177.6 42.24-48-277.12-242.56-277.12 242.56 42.24 48 202.88-177.6v505.6zM128 320v-160c0-17.673 14.327-32 32-32v0h704c17.673 0 32 14.327 32 32v0 160h64v-160c0-53.019-42.981-96-96-96v0h-704c-53.019 0-96 42.981-96 96v0 160z" />
<glyph unicode="&#xe908;" glyph-name="ki-eye-cross-f" d="M512 288c-88.366 0-160 71.634-160 160v0c-0.001 0.232-0.002 0.506-0.002 0.78 0 32.528 9.925 62.738 26.912 87.767l-0.35-0.547 221.44-221.44c-24.481-16.637-54.691-26.562-87.22-26.562-0.274 0-0.549 0.001-0.823 0.002h0.042zM796.48 208.96l-581.76 581.76-45.44-45.44 58.24-58.24c-67.267-62.465-121.359-138.092-158.33-222.9l-1.67-4.3-6.080-11.84 4.8-11.84c5.76-14.080 139.52-340.16 445.76-340.16 87.313 0.003 168.219 27.433 234.574 74.144l-1.294-0.864 64-64 45.44 45.44zM962.56 448l-4.8-11.84-1.731-4.377c-28.957-65.367-67.832-125.363-114.109-177.383l-171.52 171.52-0.106-0.91c1.066 7.495 1.645 15.146 1.706 22.99v0c0 88.366-71.634 160-160 160h-0.069c-7.775-0.060-15.426-0.64-22.011-1.6l-153.92 153.92-2.395-1.055c53.49 26.094 113.592 40.737 177.113 40.737 0.45 0 0.901-0.001 1.282-0.002 306.24 0 440-326.080 444.48-340.16z" />
<glyph unicode="&#xe909;" glyph-name="ki-eye-cross" d="M512 576v0c70.692 0 128-57.308 128-128h64c0 106.039-85.961 192-192 192zM401.92 512c-11.251-18.084-17.921-40.032-17.921-63.539 0-0.162 0-0.324 0.001-0.486v0.025c0.256-70.498 57.465-127.549 127.999-127.549 23.564 0 45.642 6.368 64.605 17.476l-0.604-0.327zM512 736c-69.44-0.367-133.938-21.213-187.85-56.8l1.29 0.8 424.96-424c58.537 53.255 106.485 116.957 141.11 188.322l1.61 3.678c-26.24 55.68-149.12 288-381.12 288zM273.6 640c-58.537-53.255-106.485-116.957-141.11-188.322l-1.61-3.678c26.24-55.68 149.12-288 381.12-288 69.44 0.367 133.938 21.213 187.85 56.8l-1.29-0.8-75.52 75.52c-30.323-22.202-68.363-35.526-109.515-35.526-0.536 0-1.072 0.002-1.607 0.007l0.082-0.001c-105.973 0.088-191.846 86.015-191.846 192 0 41.63 13.249 80.166 35.761 111.62l-0.395-0.58zM512 800c306.24 0 440-326.080 445.76-340.16l4.8-11.84-4.8-11.84c-38.848-89.022-92.908-164.614-159.604-226.834l-0.396-0.366 58.24-58.24-45.44-45.44-64 64c-65.065-45.851-145.978-73.282-233.298-73.282-0.444 0-0.888 0.001-1.331 0.002h0.069c-306.24 0-440 326.080-445.76 340.16l-4.8 11.84 4.8 11.84c38.848 89.022 92.908 164.614 159.604 226.834l0.396 0.366-56.96 58.24 45.44 45.44 64-64c65.061 45.847 145.967 73.277 233.279 73.28h0.001z" />
<glyph unicode="&#xe90a;" glyph-name="ki-eye-f" d="M512 288c-88.366 0-160 71.634-160 160s71.634 160 160 160c88.366 0 160-71.634 160-160v0c0-88.366-71.634-160-160-160v0zM957.76 459.84c-5.76 14.080-139.52 340.16-445.76 340.16s-440-326.080-445.76-340.16l-4.8-11.84 4.8-11.84c5.76-14.080 139.52-340.16 445.76-340.16s440 326.080 445.76 340.16l4.8 11.84z" />
<glyph unicode="&#xe90b;" glyph-name="ki-eye" d="M512 576c-70.692 0-128-57.308-128-128s57.308-128 128-128c70.692 0 128 57.308 128 128v0c0 70.692-57.308 128-128 128v0zM512 640c106.039 0 192-85.961 192-192s-85.961-192-192-192c-106.039 0-192 85.961-192 192v0c0 106.039 85.961 192 192 192v0zM512 736c-232 0-354.88-232.32-381.12-288 26.24-55.68 149.12-288 381.12-288s354.88 232.32 381.12 288c-26.24 55.68-149.12 288-381.12 288zM512 800c306.24 0 440-326.080 445.76-340.16l4.8-11.84-4.8-11.84c-5.76-14.080-139.52-340.16-445.76-340.16s-440 326.080-445.76 340.16l-4.8 11.84 4.8 11.84c5.76 14.080 139.52 340.16 445.76 340.16z" />
<glyph unicode="&#xe90c;" glyph-name="ki-facebook" d="M960 445.12c0-0.022 0-0.049 0-0.075 0-222.682-162.469-407.418-375.335-442.137l-2.585-0.348v312.96h104.32l19.84 129.6h-124.16v84.16c-0.173 1.768-0.272 3.821-0.272 5.898 0 18.343 7.717 34.884 20.081 46.553l0.031 0.029c11.487 11.065 27.134 17.881 44.373 17.881 3.085 0 6.119-0.218 9.087-0.64l-0.341 0.040h56.32v110.4c-29.902 5.175-64.536 8.304-99.838 8.638l-0.322 0.002c-102.4 0-169.28-62.080-169.28-174.4v-98.56h-113.6v-129.6h113.6v-312.96c-215.452 35.067-377.92 219.803-377.92 442.485 0 247.424 200.576 448 448 448 247.397 0 447.957-200.534 448-447.921v-0.004z" />
<glyph unicode="&#xe90d;" glyph-name="ki-folder-f" d="M896 480h-768v64h768zM864 704h-312.32c-0.066 0-0.144-0.001-0.223-0.001-12.422 0-23.191 7.078-28.493 17.42l-0.084 0.18-28.48 57.28c-16.103 31.744-48.501 53.12-85.891 53.12-0.066 0-0.133 0-0.199 0h-248.31c-53.019 0-96-42.981-96-96v0-672h800c53.019 0 96 42.981 96 96v0 448c0 53.019-42.981 96-96 96v0z" />
<glyph unicode="&#xe90e;" glyph-name="ki-grid-f" d="M928 416v-288c0-53.019-42.981-96-96-96v0h-288v384zM96 416h384v-384h-384zM928 768v-288h-384v384h288c53.019 0 96-42.981 96-96v0zM480 864v-384h-384v288c0 53.019 42.981 96 96 96v0z" />
<glyph unicode="&#xe90f;" glyph-name="ki-linkedin" d="M805.12 400.64c0 121.28-75.52 162.88-145.28 162.88-0.531 0.007-1.158 0.012-1.786 0.012-49.413 0-92.686-26.291-116.593-65.647l-0.341-0.605h-1.6v55.040h-120.32v-397.44h124.8v215.36c-0.4 2.931-0.628 6.319-0.628 9.761 0 18.917 6.897 36.224 18.314 49.542l-0.086-0.103c13.732 15.548 33.474 25.514 55.555 26.237l0.125 0.003c35.2 0 62.4-19.84 62.4-83.84v-216.96h125.12zM353.6 679.36c-0.691 38.348-31.941 69.171-70.389 69.171-38.881 0-70.4-31.519-70.4-70.4s31.519-70.4 70.4-70.4c19.346 0 36.869 7.803 49.594 20.434l-0.004-0.004c12.859 13 20.802 30.884 20.802 50.624 0 0.202-0.001 0.405-0.003 0.607v-0.031zM344 551.36h-125.12v-396.16h125.12zM928 800v-704c0-35.346-28.654-64-64-64v0h-704c-35.346 0-64 28.654-64 64v0 704c0 35.346 28.654 64 64 64v0h704c35.346 0 64-28.654 64-64v0z" />
<glyph unicode="&#xe910;" glyph-name="ki-linkout" d="M928 864v-384h-64v274.88l-329.28-329.6-45.44 45.44 329.28 329.28h-274.56v64zM416 864v-64h-224c-17.673 0-32-14.327-32-32v0-672h672c17.673 0 32 14.327 32 32v0 224h64v-224c0-53.019-42.981-96-96-96v0h-736v736c0 53.019 42.981 96 96 96v0z" />
<glyph unicode="&#xe911;" glyph-name="ki-list-alt" d="M256 192h640c35.346 0 64-28.654 64-64s-28.654-64-64-64v0h-640zM256 512h640c35.346 0 64-28.654 64-64s-28.654-64-64-64v0h-640zM64 192h128v-128h-128zM64 512h128v-128h-128zM64 832h128v-128h-128zM256 832h640c35.346 0 64-28.654 64-64s-28.654-64-64-64v0h-640z" />
<glyph unicode="&#xe912;" glyph-name="ki-live-tv-f" d="M864 832h-704c-53.019 0-96-42.981-96-96v0-448c0-53.019 42.981-96 96-96v0h320v-64h-128c-35.346 0-64-28.654-64-64v0h448c0 35.346-28.654 64-64 64v0h-128v64h320c53.019 0 96 42.981 96 96v0 448c0 53.019-42.981 96-96 96v0zM416 384v256l224-128z" />
<glyph unicode="&#xe913;" glyph-name="ki-map-point-f" d="M512 388.48c-88.366 0-160 71.634-160 160s71.634 160 160 160c88.366 0 160-71.634 160-160v0c0-88.366-71.634-160-160-160v0zM512 900.48c-194.404 0-352-157.596-352-352v0c0-268.16 320-526.080 332.16-536.96l19.84-16 19.84 16c13.76 10.88 332.16 268.8 332.16 536.96 0 194.404-157.596 352-352 352v0z" />
<glyph unicode="&#xe914;" glyph-name="ki-menu" d="M896 128h-800v64h800c17.673 0 32-14.327 32-32s-14.327-32-32-32v0zM896 416h-800v64h800c17.673 0 32-14.327 32-32s-14.327-32-32-32v0zM896 704h-800v64h800c17.673 0 32-14.327 32-32s-14.327-32-32-32v0z" />
<glyph unicode="&#xe915;" glyph-name="ki-more-horz" d="M512 544c53.019 0 96-42.981 96-96s-42.981-96-96-96c-53.019 0-96 42.981-96 96v0c0 53.019 42.981 96 96 96v0zM864 544c53.019 0 96-42.981 96-96s-42.981-96-96-96c-53.019 0-96 42.981-96 96v0c0 53.019 42.981 96 96 96v0zM160 544c53.019 0 96-42.981 96-96s-42.981-96-96-96c-53.019 0-96 42.981-96 96v0c0 53.019 42.981 96 96 96v0z" />
<glyph unicode="&#xe916;" glyph-name="ki-payment-f" d="M512 896c-247.424 0-448-200.576-448-448s200.576-448 448-448c247.424 0 448 200.576 448 448v0c0 247.424-200.576 448-448 448v0zM672 544h-64v32c0 17.673-14.327 32-32 32v0h-32v-128h32c53.019 0 96-42.981 96-96v0-64c0-53.019-42.981-96-96-96v0h-32v-64h-64v64h-32c-53.019 0-96 42.981-96 96v0 32h64v-32c0-17.673 14.327-32 32-32v0h32v128h-32c-53.019 0-96 42.981-96 96v0 64c0 53.019 42.981 96 96 96v0h32v64h64v-64h32c53.019 0 96-42.981 96-96v0zM416 576v-64c0-17.673 14.327-32 32-32v0h32v128h-32c-17.673 0-32-14.327-32-32v0zM544 288h32c17.673 0 32 14.327 32 32v0 64c0 17.673-14.327 32-32 32v0h-32z" />
<glyph unicode="&#xe917;" glyph-name="ki-phone-office-f" d="M544 640h224v-128h-224v128zM352 832v-768h608v768zM832 192h-352v64h352zM832 320h-352v64h352zM832 448h-352v256h352zM64 736v-576c0-53.019 42.981-96 96-96v0h128v768h-128c-53.019 0-96-42.981-96-96v0z" />
<glyph unicode="&#xe918;" glyph-name="ki-plus-circle-f" d="M736 416h-192v-192h-64v192h-192v64h192v192h64v-192h192zM512 896c-247.424 0-448-200.576-448-448s200.576-448 448-448c247.424 0 448 200.576 448 448v0c0 247.424-200.576 448-448 448v0z" />
<glyph unicode="&#xe919;" glyph-name="ki-printer-f" d="M864 320c0-17.673-14.327-32-32-32v0h-96v128h64v64h-576v-64h64v-128h-96c-17.673 0-32 14.327-32 32v0 256c0 17.673 14.327 32 32 32v0h640c17.673 0 32-14.327 32-32v0zM608 288h-128v64h128zM416 160v64h192v-64zM832 672h-96v192h-448v-192h-96c-53.019 0-96-42.981-96-96v0-256c0-53.019 42.981-96 96-96v0h96v-192h448v192h96c53.019 0 96 42.981 96 96v0 256c0 53.019-42.981 96-96 96v0z" />
<glyph unicode="&#xe91a;" glyph-name="ki-question-circle-f" d="M640 521.28c-13.12-12.8-26.56-24-38.4-32-32-26.88-48.32-40.96-48.32-71.68v-64h-64v62.4c0 62.4 38.080 93.76 72 121.28 11.657 9.395 22.1 19.027 31.871 29.304l0.129 0.136c1.774 1.642 2.881 3.983 2.881 6.583 0 1.706-0.477 3.3-1.304 4.657l0.022-0.039c-4.8 11.2-25.6 30.080-74.88 30.080-3.146 0.327-6.797 0.513-10.492 0.513-36.88 0-69.423-18.568-88.79-46.865l-0.238-0.368-56.96 29.12c30.218 49.474 83.923 81.996 145.223 81.996 4.074 0 8.114-0.144 12.116-0.426l-0.538 0.030c77.44 0 120-36.16 134.080-69.76 3.942-8.75 6.239-18.968 6.239-29.722 0-19.904-7.867-37.971-20.661-51.261l0.022 0.023zM552.32 192h-64v96h64zM512 896c-247.424 0-448-200.576-448-448s200.576-448 448-448c247.424 0 448 200.576 448 448v0c0 247.424-200.576 448-448 448v0z" />
<glyph unicode="&#xe91b;" glyph-name="ki-search_1" d="M461.44 194.56c-167.895 0-304 136.105-304 304s136.105 304 304 304c167.895 0 304-136.105 304-304v0c0-167.895-136.105-304-304-304v0zM932.16 73.28l-189.12 188.8c53.732 63.627 86.39 146.564 86.39 237.13 0 203.594-165.046 368.64-368.64 368.64s-368.64-165.046-368.64-368.64c0-203.594 165.046-368.64 368.64-368.64 90.566 0 173.503 32.659 237.678 86.842l-0.549-0.451 188.8-189.12z" />
<glyph unicode="&#xe91c;" glyph-name="ki-search" d="M461.44 194.56c-167.895 0-304 136.105-304 304s136.105 304 304 304c167.895 0 304-136.105 304-304v0c0-167.895-136.105-304-304-304v0zM932.16 73.28l-189.12 188.8c53.732 63.627 86.39 146.564 86.39 237.13 0 203.594-165.046 368.64-368.64 368.64s-368.64-165.046-368.64-368.64c0-203.594 165.046-368.64 368.64-368.64 90.566 0 173.503 32.659 237.678 86.842l-0.549-0.451 188.8-189.12z" />
<glyph unicode="&#xe91d;" glyph-name="ki-signal-f" d="M224 352h-64c-35.346 0-64-28.654-64-64v0-256h128c35.346 0 64 28.654 64 64v0 192c0 35.346-28.654 64-64 64v0zM864 864h-64c-35.346 0-64-28.654-64-64v0-768h128c35.346 0 64 28.654 64 64v0 704c0 35.346-28.654 64-64 64v0zM544 608h-64c-35.346 0-64-28.654-64-64v0-512h128c35.346 0 64 28.654 64 64v0 448c0 35.346-28.654 64-64 64v0z" />
<glyph unicode="&#xe91e;" glyph-name="ki-ticket-f" d="M416 416h-64v352h64zM416 256h-64v96h64zM416 128h-64v64h64zM928 544h32v288h-896v-288h32c53.019 0 96-42.981 96-96s-42.981-96-96-96v0h-32v-288h896v288h-32c-53.019 0-96 42.981-96 96s42.981 96 96 96v0z" />
<glyph unicode="&#xe91f;" glyph-name="ki-trash-f" d="M672 160h-64v448h64zM544 160h-64v448h64zM416 800c0 17.673 14.327 32 32 32v0h128c17.673 0 32-14.327 32-32v0-32h-192zM416 160h-64v448h64zM672 768v32c0 53.019-42.981 96-96 96v0h-128c-53.019 0-96-42.981-96-96v0-32h-224v-64h64l27.84-612.48c2.459-51.056 44.452-91.52 95.895-91.52 0.037 0 0.074 0 0.11 0h391.034c0.031 0 0.068 0 0.105 0 51.444 0 93.436 40.464 95.887 91.3l0.008 0.22 29.12 612.48h64v64z" />
<glyph unicode="&#xe920;" glyph-name="ki-twitter" d="M718.72 554.24c0-4.8 0-9.28 0-14.080 0-0.144 0-0.314 0-0.484 0-167.541-135.819-303.36-303.36-303.36-60.72 0-117.273 17.839-164.705 48.563l1.185-0.719c3.73-0.228 8.090-0.359 12.48-0.359s8.75 0.13 13.076 0.387l-0.596-0.028c0.285-0.001 0.621-0.002 0.958-0.002 49.993 0 95.959 17.239 132.278 46.097l-0.437-0.335c-46.508 0.824-85.701 31.23-99.623 73.165l-0.217 0.755c6.176-1.208 13.278-1.9 20.541-1.9 9.87 0 19.442 1.277 28.559 3.674l-0.78-0.174c-49.022 10.519-85.31 53.278-85.76 104.591v1.969c14.038-7.881 30.699-12.783 48.445-13.434l0.195-0.006c-28.567 19.41-47.087 51.752-47.087 88.419 0 19.512 5.244 37.799 14.4 53.529l-0.273-0.508c52.813-64.646 130.986-106.853 219.115-111.331l0.725-0.029c-1.464 6.633-2.303 14.252-2.303 22.067 0 59.028 47.852 106.88 106.88 106.88 30.322 0 57.695-12.627 77.147-32.909l0.036-0.037c25.586 5.181 48.308 14.169 68.821 26.465l-0.981-0.545c-8.33-25.202-24.949-45.762-46.564-58.931l-0.476-0.269c22.817 2.856 43.56 8.706 62.876 17.204l-1.436-0.564c-14.586-21.135-32.208-38.96-52.462-53.317l-0.658-0.443zM96 800v-704c0-35.346 28.654-64 64-64v0h704c35.346 0 64 28.654 64 64v0 704c0 35.346-28.654 64-64 64v0h-704c-35.346 0-64-28.654-64-64v0z" />
<glyph unicode="&#xe921;" glyph-name="ki-upload" d="M512 837.12l277.12-242.24-42.24-48.32-202.88 177.6v-505.28h-64v505.28l-202.88-177.6-42.24 48.32zM192 762.88v-64h-32c-17.673 0-32-14.327-32-32v0-512c0-17.673 14.327-32 32-32v0h704c17.673 0 32 14.327 32 32v0 512c0 17.673-14.327 32-32 32v0h-32v64h32c53.019 0 96-42.981 96-96v0-512c0-53.019-42.981-96-96-96v0h-704c-53.019 0-96 42.981-96 96v0 512c0 53.019 42.981 96 96 96v0z" />
<glyph unicode="&#xe922;" glyph-name="ki-youtube" d="M453.12 362.24l150.4 85.76-150.4 85.76zM540.16 650.88h-28.16c-8.78 0.163-19.135 0.256-29.511 0.256-68.531 0-136.118-4.046-202.534-11.911l8.045 0.776c-24.97-6.823-44.211-26.17-50.766-50.699l-0.114-0.501c-8.345-42.177-13.12-90.67-13.12-140.279 0-0.183 0-0.366 0-0.549v0.028c-0.008-1.295-0.013-2.826-0.013-4.359 0-47.778 4.429-94.522 12.9-139.843l-0.727 4.682c6.428-25.778 26.178-45.741 51.34-52.368l0.5-0.112c61.294-7.815 132.21-12.275 204.167-12.275 6.974 0 13.937 0.042 20.891 0.125l-1.057-0.010c5.896-0.074 12.86-0.115 19.833-0.115 71.957 0 142.872 4.46 212.485 13.119l-8.318-0.844c24.97 6.823 44.211 26.17 50.766 50.699l0.114 0.501c8.345 42.177 13.12 90.67 13.12 140.279 0 0.183 0 0.366 0 0.549v-0.028c0.008 1.295 0.013 2.826 0.013 4.359 0 47.778-4.429 94.522-12.9 139.843l0.727-4.682c-6.428 25.778-26.178 45.741-51.34 52.368l-0.5 0.112c-61.294 7.815-132.21 12.275-204.167 12.275-6.974 0-13.937-0.042-20.891-0.125l1.057 0.010zM864 864c35.346 0 64-28.654 64-64v0-704c0-35.346-28.654-64-64-64v0h-704c-35.346 0-64 28.654-64 64v0 704c0 35.346 28.654 64 64 64v0z" />
<glyph unicode="&#xe923;" glyph-name="se-audio-f" d="M384 448v-32c0-17.673 14.327-32 32-32v0h32v96h-32c-17.673 0-32-14.327-32-32v0zM846.72 690.88l-170.88 186.24c-10.213 11.557-25.053 18.823-41.59 18.88h-416.010c-32.553-1.719-58.297-28.533-58.297-61.36 0-0.929 0.021-1.852 0.061-2.771l-0.005 0.131v-832h645.44c32.695 1.551 58.616 28.436 58.616 61.375 0 0.923-0.020 1.842-0.061 2.755l0.005-0.13v581.44c0.002 0.17 0.002 0.372 0.002 0.573 0 17.292-6.562 33.051-17.332 44.922l0.050-0.056zM640 256l-154.56 77.44c-9.237 4.648-17.013 10.89-23.264 18.441l-0.096 0.119h-46.080c-35.346 0-64 28.654-64 64v0 32c0 35.346 28.654 64 64 64v0h41.92c5.023 7.671 11.316 14.066 18.646 19.050l0.234 0.15 163.2 108.8z" />
<glyph unicode="&#xe924;" glyph-name="se-close-ticket" d="M656.32 640l-144.32-144.32-144.32 144.32-47.68-47.68 144.32-144.32-144.32-144.32 47.68-47.68 144.32 144.32 144.32-144.32 47.68 47.68-144.32 144.32 144.32 144.32zM960 832v-288h-32c-53.019 0-96-42.981-96-96s42.981-96 96-96v0h32v-288h-896v288h32c53.019 0 96 42.981 96 96s-42.981 96-96 96v0h-32v288z" />
<glyph unicode="&#xe925;" glyph-name="se-coax-f" d="M704 593.28l152.32 152-47.040 45.44-152-152.32-90.56 90.56c-11.563 11.472-27.489 18.561-45.070 18.561-0.13 0-0.26 0-0.39-0.001h0.020c-0.015 0-0.033 0-0.051 0-17.581 0-33.506-7.089-45.073-18.564l-159.996-159.996c-11.584 11.597-27.594 18.77-45.28 18.77s-33.696-7.174-45.279-18.77l-128.001-128.001c-11.597-11.584-18.77-27.594-18.77-45.28s7.174-33.696 18.77-45.279l361.921-361.921 175.040 174.72c11.597 11.584 18.77 27.594 18.77 45.28s-7.174 33.696-18.77 45.279l-0.001 0.001 160 158.4c11.597 11.584 18.77 27.594 18.77 45.28s-7.174 33.696-18.77 45.279l-0.001 0.001zM592 300.16l-226.24 226.24 157.12 157.12 226.24-226.24z" />
<glyph unicode="&#xe926;" glyph-name="se-doctype-f" d="M192 32v800c-0.062 0.719-0.097 1.557-0.097 2.402 0 15.343 11.611 27.974 26.525 29.586l0.132 0.012h416c7.164-0.032 13.572-3.24 17.893-8.288l0.027-0.032 171.2-186.56c5.371-6.23 8.642-14.403 8.642-23.34 0-0.12-0.001-0.239-0.002-0.358v0.018-581.44c0.062-0.719 0.097-1.557 0.097-2.402 0-15.343-11.611-27.974-26.525-29.586l-0.132-0.012zM630.4 832l169.6-184.32c0.036-0.336 0.056-0.726 0.056-1.12s-0.020-0.784-0.060-1.168l0.004 0.048v-581.44h-576v768h406.4zM634.24 896h-416c-32.553-1.719-58.297-28.533-58.297-61.36 0-0.929 0.021-1.852 0.061-2.771l-0.005 0.131v-832h645.44c32.695 1.551 58.616 28.436 58.616 61.375 0 0.923-0.020 1.842-0.061 2.755l0.005-0.13v581.44c0.002 0.17 0.002 0.372 0.002 0.573 0 17.292-6.562 33.051-17.332 44.922l0.050-0.056-170.88 186.24c-10.213 11.557-25.053 18.823-41.59 18.88h-0.010z" />
<glyph unicode="&#xe927;" glyph-name="se-doublechevron-left" d="M830.4 864l75.84-71.68-318.080-344.32 318.080-344.32-75.84-71.68-381.44 416 381.44 416zM499.2 864l75.84-71.68-318.080-344.32 318.080-344.32-75.84-71.68-381.76 416 381.76 416z" />
<glyph unicode="&#xe928;" glyph-name="se-doublechevron-right" d="M193.6 864l-76.16-71.68 318.4-344.32-318.4-344.32 76.16-71.68 381.44 416-381.44 416zM524.8 864l-75.84-71.68 318.080-344.32-318.080-344.32 75.84-71.68 381.44 416-381.44 416z" />
<glyph unicode="&#xe929;" glyph-name="se-fiber-f" d="M913.28 622.72l-45.44 45.44-120.32-120.32-43.52 45.44 152.32 152-47.040 45.44-152-152.32-45.44 45.12 168.32 168.32-44.16 44.16-169.28-167.040c-11.563 11.472-27.489 18.561-45.070 18.561-0.13 0-0.26 0-0.39-0.001h0.020c-0.015 0-0.033 0-0.051 0-17.581 0-33.506-7.089-45.073-18.564l-159.996-159.996c-11.584 11.597-27.594 18.77-45.28 18.77s-33.696-7.174-45.279-18.77l-128.001-128.001c-11.597-11.584-18.77-27.594-18.77-45.28s7.174-33.696 18.77-45.279l361.921-361.921 175.040 174.72c11.597 11.584 18.77 27.594 18.77 45.28s-7.174 33.696-18.77 45.279l-0.001 0.001 160 158.4c11.597 11.584 18.77 27.594 18.77 45.28s-7.174 33.696-18.77 45.279l-0.001 0.001zM590.4 300.16l-226.24 226.24 157.12 157.12 226.24-226.24z" />
<glyph unicode="&#xe92a;" glyph-name="se-filter-arrow-down" d="M568.64 25.92l209.28 230.080c12.375 13.541 19.957 31.645 19.957 51.52 0 42.239-34.241 76.48-76.48 76.48-0.041 0-0.082 0-0.123 0h-418.554c-0.035 0-0.076 0-0.117 0-42.239 0-76.48-34.241-76.48-76.48 0-19.875 7.581-37.979 20.010-51.579l-0.053 0.059 209.28-230.4c14.080-15.253 34.175-24.774 56.493-24.774 22.471 0 42.688 9.651 56.733 25.034l0.054 0.060z" />
<glyph unicode="&#xe92b;" glyph-name="se-filter-arrow-up" d="M455.36 871.040l-209.28-231.040c-12.375-13.541-19.957-31.645-19.957-51.52 0-42.239 34.241-76.48 76.48-76.48 0.041 0 0.082 0 0.123 0h418.554c0.035 0 0.076 0 0.117 0 42.239 0 76.48 34.241 76.48 76.48 0 19.875-7.581 37.979-20.010 51.579l0.053-0.059-209.28 230.4c-14.107 15.538-34.385 25.255-56.933 25.255-22.243 0-42.277-9.456-56.302-24.567l-0.045-0.049z" />
<glyph unicode="&#xe92c;" glyph-name="se-image-f" d="M846.72 690.88l-170.88 186.24c-10.213 11.557-25.053 18.823-41.59 18.88h-416.010c-32.553-1.719-58.297-28.533-58.297-61.36 0-0.929 0.021-1.852 0.061-2.771l-0.005 0.131v-832h645.44c32.695 1.551 58.616 28.436 58.616 61.375 0 0.923-0.020 1.842-0.061 2.755l0.005-0.13v581.44c0.002 0.17 0.002 0.372 0.002 0.573 0 17.292-6.562 33.051-17.332 44.922l0.050-0.056zM560 608c26.51 0 48-21.49 48-48s-21.49-48-48-48c-26.51 0-48 21.49-48 48v0c0 26.51 21.49 48 48 48v0zM736 288c0.027-0.681 0.042-1.48 0.042-2.282 0-34.109-27.651-61.76-61.76-61.76-0.803 0-1.602 0.015-2.397 0.046l0.115-0.003h-384v128l128 128 128-128 96 92.48 96-92.48z" />
<glyph unicode="&#xe92d;" glyph-name="se-managed-network" d="M362.56 298.56h-74.56v149.44h288c17.673 0 32 14.327 32 32s-14.327 32-32 32v0h-26.56v85.44h74.56c41.178 0 74.56 33.382 74.56 74.56v0 149.44c0 41.178-33.382 74.56-74.56 74.56h-224c-41.178 0-74.56-33.382-74.56-74.56v0-149.44c0-41.178 33.382-74.56 74.56-74.56v0h74.56v-85.44h-261.12v-213.44h-74.88c-41.178 0-74.56-33.382-74.56-74.56v0-149.44c0-41.178 33.382-74.56 74.56-74.56v0h298.88v224c0 0 0 0 0 0.001 0 41.178-33.382 74.56-74.56 74.56-0.113 0-0.225 0-0.337-0.001h0.017zM904 234.24c0.023 15.832 8.081 29.776 20.315 37.976l0.165 0.104 35.52 23.68-67.52 112.32-27.84-18.56c-3.497-2.26-7.537-4.117-11.837-5.36l-0.323-0.080c-0.722-0.148-1.551-0.233-2.4-0.233s-1.678 0.085-2.48 0.246l0.080-0.013c-1.201-0.147-2.591-0.23-4-0.23s-2.799 0.084-4.165 0.246l0.165-0.016c-1.439-0.146-3.11-0.23-4.8-0.23s-3.361 0.083-5.008 0.247l0.208-0.017h-4.48c-5.008 1.811-9.341 4.080-13.305 6.842l0.185-0.122-6.4 5.12c-11.123 8.376-18.24 21.557-18.24 36.4 0 0.028 0 0.056 0 0.084v-0.004 35.52h-134.72v-35.52c0-0.071 0.001-0.156 0.001-0.24 0-14.795-7.121-27.927-18.123-36.155l-0.118-0.084-3.84-2.88-2.56-2.24c-3.678-2.719-7.913-4.993-12.458-6.614l-0.342-0.106h-4.48c-1.439-0.146-3.11-0.23-4.8-0.23s-3.361 0.083-5.008 0.247l0.208-0.017c-1.201-0.147-2.591-0.23-4-0.23s-2.799 0.084-4.165 0.246l0.165-0.016c-0.722-0.148-1.551-0.233-2.4-0.233s-1.678 0.085-2.48 0.246l0.080-0.013c-4.623 1.323-8.663 3.18-12.341 5.549l0.181-0.109-27.84 18.56-68.8-112.32 35.52-23.68c3.212-2.292 6.035-4.71 8.631-7.351l0.009-0.009c7.347-8.088 11.845-18.878 11.845-30.72s-4.498-22.632-11.878-30.758l0.034 0.038c-2.478-2.847-5.323-5.285-8.483-7.268l-0.157-0.092-35.52-24 67.52-112 27.84 18.56c7.105 4.794 15.856 7.66 25.275 7.68h0.005c10.493-0.049 20.164-3.526 27.962-9.368l-0.122 0.088 6.4-4.8c11.131-8.502 18.24-21.78 18.24-36.719 0-0.028 0-0.057 0-0.085v0.004-35.52h133.76v35.52c0.129 9.715 3.224 18.683 8.418 26.068l-0.098-0.148c2.866 4.145 6.139 7.723 9.835 10.811l0.085 0.069 6.4 4.8c7.676 5.754 17.347 9.231 27.828 9.28h0.012c9.424-0.020 18.175-2.886 25.443-7.783l-0.163 0.103 27.84-18.56 67.52 112-35.52 24c-12.411 8.245-20.48 22.166-20.48 37.971 0 0.038 0 0.077 0 0.115v-0.006zM801.92 217.28c-7.91-38.929-41.861-67.816-82.558-67.816-46.48 0-84.16 37.68-84.16 84.16s37.68 84.16 84.16 84.16c46.264 0 83.809-37.329 84.158-83.511v-0.033c-0.045-6.025-0.625-11.884-1.695-17.57l0.095 0.61z" />
<glyph unicode="&#xe92e;" glyph-name="se-managed-security" d="M425.28 139.2c-5.819 9.455-9.267 20.91-9.267 33.17 0 22.101 11.203 41.586 28.24 53.085l0.227 0.144 13.12 8.64-13.12 8.64c-17.185 11.654-28.329 31.095-28.329 53.138 0 12.167 3.395 23.54 9.289 33.225l-0.16-0.283 67.2 112.32c9.017 14.775 23.478 25.472 40.531 29.358l0.429 0.082c2.112 0.233 4.56 0.366 7.040 0.366s4.928-0.133 7.339-0.392l-0.299 0.026c13.142-0.106 25.317-4.156 35.423-11.023l-0.223 0.143 6.4-4.16v10.88c0 35.346 28.654 64 64 64v0h133.76c11.859-0.231 22.873-3.653 32.277-9.439l-0.277 0.159c8.24 45.254 13.008 97.391 13.12 150.622v0.098c0.015 0.509 0.023 1.109 0.023 1.71 0 30.132-20.824 55.401-48.865 62.2l-0.437 0.090c-108.8 23.36-334.72 160-334.72 160s-225.92-136.64-334.72-160c-28.479-6.889-49.303-32.157-49.303-62.29 0-0.601 0.008-1.201 0.025-1.798l-0.002 0.088c0-142.080 34.88-496 384-672 16 8 32 16.64 45.76 25.28v1.92zM924.48 272.32l35.52 23.68-67.52 112.32-27.84-18.56c-3.497-2.26-7.537-4.117-11.837-5.36l-0.323-0.080c-0.722-0.148-1.551-0.233-2.4-0.233s-1.678 0.085-2.48 0.246l0.080-0.013c-1.201-0.147-2.591-0.23-4-0.23s-2.799 0.084-4.165 0.246l0.165-0.016c-1.439-0.146-3.11-0.23-4.8-0.23s-3.361 0.083-5.008 0.247l0.208-0.017h-4.48c-5.008 1.811-9.341 4.080-13.305 6.842l0.185-0.122-6.4 5.12c-11.123 8.376-18.24 21.557-18.24 36.4 0 0.028 0 0.056 0 0.084v-0.004 35.52h-134.72v-35.52c0-0.071 0.001-0.156 0.001-0.24 0-14.795-7.121-27.927-18.123-36.155l-0.118-0.084-3.84-2.88-2.56-2.24c-3.678-2.719-7.913-4.993-12.458-6.614l-0.342-0.106h-4.48c-1.439-0.146-3.11-0.23-4.8-0.23s-3.361 0.083-5.008 0.247l0.208-0.017c-1.201-0.147-2.591-0.23-4-0.23s-2.799 0.084-4.165 0.246l0.165-0.016c-0.722-0.148-1.551-0.233-2.4-0.233s-1.678 0.085-2.48 0.246l0.080-0.013c-4.623 1.323-8.663 3.18-12.341 5.549l0.181-0.109-27.84 18.56-68.8-112.32 35.52-23.68c3.212-2.292 6.035-4.71 8.631-7.351l0.009-0.009c7.347-8.088 11.845-18.878 11.845-30.72s-4.498-22.632-11.878-30.758l0.034 0.038c-2.478-2.847-5.323-5.285-8.483-7.268l-0.157-0.092-35.52-24 67.52-112 27.84 18.56c7.105 4.794 15.856 7.66 25.275 7.68h0.005c10.493-0.049 20.164-3.526 27.962-9.368l-0.122 0.088 6.4-4.8c11.131-8.502 18.24-21.78 18.24-36.719 0-0.028 0-0.057 0-0.085v0.004-35.52h133.76v35.52c0.129 9.715 3.224 18.683 8.418 26.068l-0.098-0.148c2.866 4.145 6.139 7.723 9.835 10.811l0.085 0.069 6.4 4.8c7.676 5.754 17.347 9.231 27.828 9.28h0.012c9.424-0.020 18.175-2.886 25.443-7.783l-0.163 0.103 27.84-18.56 67.52 112-35.52 24c-12.362 8.323-20.385 22.264-20.385 38.080s8.023 29.757 20.222 37.977l0.163 0.103zM801.92 217.28c-7.91-38.929-41.861-67.816-82.558-67.816-46.48 0-84.16 37.68-84.16 84.16s37.68 84.16 84.16 84.16c46.264 0 83.809-37.329 84.158-83.511v-0.033c-0.045-6.025-0.625-11.884-1.695-17.57l0.095 0.61z" />
<glyph unicode="&#xe92f;" glyph-name="se-mov-f" d="M846.72 690.88l-170.88 186.24c-10.213 11.557-25.053 18.823-41.59 18.88h-416.010c-32.553-1.719-58.297-28.533-58.297-61.36 0-0.929 0.021-1.852 0.061-2.771l-0.005 0.131v-832h645.44c32.695 1.551 58.616 28.436 58.616 61.375 0 0.923-0.020 1.842-0.061 2.755l0.005-0.13v581.44c0.002 0.17 0.002 0.372 0.002 0.573 0 17.292-6.562 33.051-17.332 44.922l0.050-0.056zM384 288v320l256-160z" />
<glyph unicode="&#xe930;" glyph-name="se-network-f" d="M832 320h-64v160h-224v96h64c35.346 0 64 28.654 64 64v0 128c0 35.346-28.654 64-64 64v0h-192c-35.346 0-64-28.654-64-64v0-128c0-35.346 28.654-64 64-64v0h64v-96h-224v-160h-64c-35.346 0-64-28.654-64-64v0-128c0-35.346 28.654-64 64-64v0h256v192c0 35.346-28.654 64-64 64v0h-64v96h384v-96h-64c-35.346 0-64-28.654-64-64v0-192h256c35.346 0 64 28.654 64 64v0 128c0 35.346-28.654 64-64 64v0z" />
<glyph unicode="&#xe931;" glyph-name="se-pdf-f" d="M495.68 630.4c-1.274 1.948-3.444 3.217-5.912 3.217-0.172 0-0.342-0.006-0.511-0.018l0.023 0.001c-3.003-0.022-5.577-1.84-6.702-4.432l-0.018-0.048c-2.321-9.779-3.651-21.008-3.651-32.547 0-18.904 3.571-36.974 10.076-53.572l-0.345 0.998c8.96 32 16.32 73.6 7.040 86.4zM320 274.24c-0.352-0.7-0.558-1.526-0.558-2.4s0.206-1.7 0.572-2.431l-0.014 0.031c1.977-3.152 5.364-5.26 9.255-5.439l0.025-0.001c10.684 2.493 19.783 8.159 26.507 15.937l0.053 0.063c14.738 15.445 28.040 32.512 39.539 50.827l0.781 1.333c-65.28-29.44-74.56-53.12-76.16-57.92zM473.92 384c15.68 4.48 41.28 11.84 75.2 18.88-15.897 16.984-30.357 35.717-42.942 55.747l-0.898 1.533c-7.040-17.6-19.84-51.52-31.36-76.16zM645.12 392.64c-0.68 0.005-1.483 0.008-2.287 0.008-15.33 0-30.414-1.050-45.186-3.081l1.713 0.193c18.5-15.068 41.631-25.125 66.964-27.793l0.556-0.047c16.96 0 18.24 11.2 18.24 14.72s-8.32 16-40 16zM846.72 690.88l-170.88 186.24c-10.213 11.557-25.053 18.823-41.59 18.88h-416.010c-32.553-1.719-58.297-28.533-58.297-61.36 0-0.929 0.021-1.852 0.061-2.771l-0.005 0.131v-832h645.44c32.695 1.551 58.616 28.436 58.616 61.375 0 0.923-0.020 1.842-0.061 2.755l0.005-0.13v581.44c0.002 0.17 0.002 0.372 0.002 0.573 0 17.292-6.562 33.051-17.332 44.922l0.050-0.056zM676.8 336c-41.946 3.033-79.249 20.776-107.237 48.036l0.037-0.036c-42.723-7.339-80.37-17.559-116.507-30.896l4.507 1.456c-8.64-17.28-64-115.84-120.96-115.84-24.32 0-38.72 12.16-38.72 32 0 11.2 8.64 51.2 117.76 92.48 23.083 40.798 44.701 88.563 62.078 138.318l1.922 6.322c-13.455 27.265-22.108 59.13-23.972 92.806l-0.028 0.634c0 46.080 23.040 53.12 36.8 53.12 11.198-0.273 21.242-5 28.469-12.469l0.011-0.011c10.101-12.417 16.219-28.427 16.219-45.866 0-3.121-0.196-6.196-0.576-9.214l0.037 0.359c-1.456-35.42-8.49-68.762-20.246-99.782l0.726 2.182c15.583-30.964 35.277-57.403 58.775-79.9l0.105-0.1c21.022 3.597 45.559 5.905 70.542 6.392l0.498 0.008c36.16 0 78.4-11.52 78.4-44.48s-33.92-35.52-48.64-35.52z" />
<glyph unicode="&#xe932;" glyph-name="se-presentation-f" d="M384 496h256v-32h-256v32zM448 576h128v-32h-128v32zM846.72 690.88l-170.88 186.24c-10.213 11.557-25.053 18.823-41.59 18.88h-416.010c-32.553-1.719-58.297-28.533-58.297-61.36 0-0.929 0.021-1.852 0.061-2.771l-0.005 0.131v-832h645.44c32.695 1.551 58.616 28.436 58.616 61.375 0 0.923-0.020 1.842-0.061 2.755l0.005-0.13v581.44c0.002 0.17 0.002 0.372 0.002 0.573 0 17.292-6.562 33.051-17.332 44.922l0.050-0.056zM654.72 416h-110.72v-80c35.346 0 64-28.654 64-64v0h-192c0 35.346 28.654 64 64 64v0 80h-109.44c-0.030 0-0.067 0-0.103 0-17.673 0-32 14.327-32 32 0 0.901 0.037 1.793 0.11 2.676l-0.008-0.116 13.44 173.44h320l13.44-173.44c0.065-0.767 0.103-1.659 0.103-2.56 0-17.673-14.327-32-32-32-0.036 0-0.072 0-0.108 0h0.006z" />
<glyph unicode="&#xe933;" glyph-name="se-sdwan-f" d="M608 160h-64v32h192c125.019 8.96 223.048 112.583 223.048 239.102 0 104.293-66.612 193.027-159.611 225.98l-1.677 0.518c-21.776 135.904-138.185 238.492-278.555 238.492-2.533 0-5.059-0.033-7.576-0.1l0.371 0.008c-2.050 0.054-4.465 0.084-6.886 0.084-140.367 0-256.774-102.584-278.34-236.871l-0.214-1.613c-94.705-33.455-161.342-122.204-161.342-226.516 0-126.425 97.884-229.989 222.001-239.038l0.781-0.046h192v-32h-64c-35.346 0-64-28.654-64-64v0h-256v-64h264.96c11.208-19.156 31.625-31.854 55.019-32h256.021v32h256v64h-256c0 35.346-28.654 64-64 64v0z" />
<glyph unicode="&#xe934;" glyph-name="se-shield-f" d="M849.6 736c-109.76 23.36-337.6 160-337.6 160s-227.84-136.64-337.6-160c-28.638-6.77-49.621-32.117-49.621-62.364 0-0.575 0.008-1.149 0.023-1.721l-0.002 0.084c-0.64-142.080 35.2-496 387.2-672 352 176 387.84 529.92 387.2 672 0.013 0.487 0.021 1.061 0.021 1.636 0 30.247-20.983 55.593-49.186 62.277l-0.435 0.087zM480 306.88l-150.72 150.4 45.44 45.44 105.28-105.6 233.28 233.6 45.44-45.44z" />
<glyph unicode="&#xe935;" glyph-name="se-spreadsheet-f" d="M846.72 690.88l-170.88 186.24c-10.213 11.557-25.053 18.823-41.59 18.88h-416.010c-32.553-1.719-58.297-28.533-58.297-61.36 0-0.929 0.021-1.852 0.061-2.771l-0.005 0.131v-832h645.44c32.695 1.551 58.616 28.436 58.616 61.375 0 0.923-0.020 1.842-0.061 2.755l0.005-0.13v581.44c0.002 0.17 0.002 0.372 0.002 0.573 0 17.292-6.562 33.051-17.332 44.922l0.050-0.056zM480 160h-192v64h192zM480 288h-192v64h192zM480 416h-192v64h192zM480 544h-192v64h192zM736 160h-192v64h192zM736 288h-192v64h192zM736 416h-192v64h192zM736 544h-192v64h192z" />
<glyph unicode="&#xe936;" glyph-name="se-support-f" d="M736 448c0-123.712-100.288-224-224-224s-224 100.288-224 224c0 123.712 100.288 224 224 224s224-100.288 224-224zM864 544c0 3.2-4.16 320-352 320s-352-316.8-352-320c-35.346 0-64-28.654-64-64v0-96c0-35.346 28.654-64 64-64v0h96v224h-32c0 10.56 3.2 256 288 256s288-245.12 288-256h-32v-224h32v-85.44l-80-106.56h-80v32h-160c-35.346 0-64-28.654-64-64s28.654-64 64-64v0h96c23.415 0.146 43.832 12.844 54.876 31.698l0.164 0.302h120.96l112 149.44v106.56c35.346 0 64 28.654 64 64v0 96c0 35.346-28.654 64-64 64v0z" />
<glyph unicode="&#xe937;" glyph-name="se-textdoc-f" d="M846.72 690.88l-170.88 186.24c-10.213 11.557-25.053 18.823-41.59 18.88h-416.010c-32.553-1.719-58.297-28.533-58.297-61.36 0-0.929 0.021-1.852 0.061-2.771l-0.005 0.131v-832h645.44c32.695 1.551 58.616 28.436 58.616 61.375 0 0.923-0.020 1.842-0.061 2.755l0.005-0.13v581.44c0.002 0.17 0.002 0.372 0.002 0.573 0 17.292-6.562 33.051-17.332 44.922l0.050-0.056zM736 160h-448v64h448zM736 288h-448v64h448zM736 416h-448v64h448zM736 544h-448v64h448z" />
<glyph unicode="&#xe938;" glyph-name="se-ticket-f" d="M930.56 573.44l-45.12 45.12c-7.37 6.151-16.942 9.886-27.387 9.886-6.926 0-13.468-1.642-19.259-4.558l0.246 0.112c-15.369-7.511-33.443-11.903-52.542-11.903-30.801 0-58.935 11.422-80.396 30.261l0.138-0.119c-18.721 21.323-30.143 49.457-30.143 80.258 0 19.099 4.392 37.172 12.22 53.265l-0.318-0.724c2.804 5.545 4.446 12.087 4.446 19.013 0 10.445-3.734 20.018-9.941 27.456l0.056-0.068-74.56 74.56-194.24-194.24c-11.632-9.163-19.033-23.248-19.033-39.061 0-10.933 3.537-21.040 9.53-29.239l-0.098 0.14c-8.061 5.823-18.141 9.314-29.037 9.314-15.808 0-29.899-7.347-39.046-18.813l-0.077-0.101-233.28-233.28c-11.514-9.165-18.829-23.179-18.829-38.901 0-11.003 3.583-21.169 9.645-29.395l-0.096 0.136 45.12-45.12c7.37-6.151 16.942-9.886 27.387-9.886 6.926 0 13.468 1.642 19.259 4.558l-0.246-0.112c15.369 7.511 33.443 11.903 52.542 11.903 30.801 0 58.935-11.422 80.396-30.261l-0.138 0.119c18.721-21.323 30.143-49.457 30.143-80.258 0-19.099-4.392-37.172-12.22-53.265l0.318 0.724c-2.804-5.545-4.446-12.087-4.446-19.013 0-10.445 3.734-20.018 9.941-27.456l-0.056 0.068 74.56-74.56 272 272c11.566 9.224 18.914 23.316 18.914 39.123 0 10.896-3.491 20.976-9.415 29.184l0.101-0.147c8.058-5.895 18.165-9.433 29.099-9.433 15.814 0 29.899 7.4 38.981 18.927l0.080 0.106 155.52 155.52c11.514 9.165 18.829 23.179 18.829 38.901 0 11.003-3.583 21.169-9.645 29.395l0.096-0.136zM402.56 590.080l45.44 45.12 61.76-61.76-45.12-45.12zM498.56 494.080l45.44 45.12 61.76-61.76-45.12-45.12zM656.32 336.32l-61.76 61.76 45.44 45.12 61.76-61.76z" />
<glyph unicode="&#xe939;" glyph-name="se-wifi-f" d="M512 614.72c124.305-1.407 236.049-54.032 315.332-137.72l0.188-0.2c5.14-6.065 12.763-9.889 21.28-9.889s16.14 3.824 21.247 9.849l0.033 0.040 48.96 56.32c5.799 6.813 9.326 15.714 9.326 25.44s-3.527 18.627-9.373 25.496l0.046-0.056c-101.704 109.906-246.129 179.014-406.717 180.797l-0.323 0.003c-160.588-1.797-304.749-70.643-406.074-179.805l-0.326-0.355c-5.799-6.813-9.326-15.714-9.326-25.44s3.527-18.627 9.373-25.496l-0.046 0.056 70.080-80.64c80.832 97.291 201.107 159.401 335.95 161.595l0.37 0.005zM512 364.48c63.663-0.591 121.253-26.111 163.576-67.254l-0.056 0.054c4.948-4.801 11.706-7.762 19.156-7.762 8.667 0 16.398 4.007 21.443 10.269l0.041 0.053 48.96 56.32c5.618 6.835 9.025 15.674 9.025 25.309 0 10.657-4.167 20.34-10.962 27.51l0.017-0.018c-64.315 64.493-152.977 104.679-251.024 105.599l-0.176 0.001c-98.223-0.921-186.885-41.107-251.192-105.592l-0.008-0.008c-6.777-7.151-10.945-16.835-10.945-27.491 0-9.634 3.406-18.473 9.080-25.378l-0.055 0.070 69.12-80c44.274 53.145 110.053 87.075 183.79 88.317l0.21 0.003zM512 64l103.68 119.68c5.791 6.686 9.319 15.469 9.319 25.077 0 13.226-6.687 24.891-16.864 31.797l-0.134 0.086c-27.524 14.914-60.258 23.68-95.040 23.68s-67.516-8.767-96.114-24.211l1.074 0.53c-10.663-6.941-17.615-18.803-17.615-32.288 0-9.421 3.392-18.049 9.022-24.73l-0.047 0.058z" />
</font>
</defs>
</svg>
